<?xml version="1.0" encoding="utf-8"?>
<!-- Generator: Adobe Illustrator 21.1.0, SVG Export Plug-In . SVG Version: 6.00 Build 0)  -->
<svg version="1.1" xmlns="http://www.w3.org/2000/svg" xmlns:xlink="http://www.w3.org/1999/xlink" x="0px" y="0px"
	 viewBox="0 0 250 60" style="enable-background:new 0 0 250 60;" xml:space="preserve">
<style type="text/css">
	.st0{fill:#39B54A;stroke:#F2F2F2;stroke-width:0.25;}
	.st1{fill:#094D7E;}
</style>
<g id="tree">
	<g>
		<path class="st0" d="M27.2,1c-4.5,1.8-3.4,9.4,1.6,8.1C32.6,8.1,32.3,0.8,27.2,1z M28.2,7.1c-2.4,1.1-2-3-1-4.1
			C27.6,2.9,28,3,28.3,3c0.3,0.2,0.5,0.4,0.8,0.7C29.4,5,29.3,6.6,28.2,7.1z"/>
		<path class="st0" d="M20.6,5.2c2.3,1.4,3.8,3.7,5.7,5.6c-0.3,1.5,0.3,8-0.4,8.7c-0.6,0-1.2-0.1-1.7-0.1c0-2.1,0.7-6.9,0-8.4
			c-1.6-1.4-3.2-2.8-4.8-4.1c0-0.1,0-0.3,0-0.4C19.8,6,20,5.6,20.6,5.2z"/>
		<path class="st0" d="M31.4,19.5c-0.8,0-1.5,0.1-1.8-0.2c0-3,0.1-6,0.1-8.9c0.4-1,4.3-4.3,5.3-5c0.1,0,0.3,0,0.4,0
			c0.4,0.4,1.1,0.9,0.9,1.3c-0.9,1.9-3.4,2.6-4.5,4.2C31,11.9,31.4,17.6,31.4,19.5z"/>
		<path class="st0" d="M16,6.6c0.7,0.1,1.3,0.2,2,0.3c0,1.3-0.8,5.6-0.2,6.5c1.9,1.9,3.7,3.8,5.6,5.8c-0.1,0.7-0.6,1.2-1.3,1.3
			c-1.3-1.5-6.2-4.7-6.4-6.8C15.8,11.3,15.9,8.9,16,6.6z"/>
		<path class="st0" d="M38.4,6.6c0.2,0,0.4,0.1,0.7,0.1c0,2.3,0.9,4.6,0.3,6.9c-0.5,1.8-4.9,5.8-6.4,7c-0.1,0-0.3-0.1-0.4-0.1
			c-0.4-0.6-0.9-0.6-1-1.5c1.9-1.9,3.8-3.7,5.8-5.6c0.1-2.3-0.7-4.6-0.3-6.7C37.6,6.6,38,6.6,38.4,6.6z"/>
		<path class="st0" d="M9.5,8.2c-5.3,3.3,0.4,9.6,3.9,7.7C17.6,13.7,14.2,8,9.5,8.2z M12.2,14c-1.8-0.1-3.1-1-3-3.1
			c0.3-0.2,0.5-0.4,0.8-0.7c2.1-0.1,3.2,1,3.1,3.1C12.7,13.5,12.4,13.8,12.2,14z"/>
		<path class="st0" d="M43.3,8.4c-2.6,1.4-5.9,6.5-0.9,7.7C47.5,17.3,50.7,8.1,43.3,8.4z M42.3,13.8c-0.1-0.3-0.3-0.5-0.4-0.8
			c0-1.7,1.1-2.1,2.2-2.7c0.4,0.1,0.8,0.1,1.2,0.2c0.1,0.2,0.2,0.4,0.3,0.6C46.4,13,43.8,14.4,42.3,13.8z"/>
		<path class="st0" d="M43.8,16.4c1.9,0.2,3.7,0.4,5.6,0.6c-0.1,0.7-0.2,1.3-0.3,2c-0.2,0-0.4,0-0.7,0c-5.4-1.7-6.7,0.1-9.2,3.1
			c-0.6,0.7-1.6,1.3-1.9,2.1c2.5,0,4.9,0,7.4,0c1.9-0.6,2.9-3.7,4.5-4.8c0.1,0,0.3,0,0.4,0c0.4,0.4,0.7,0.7,1.1,1.1
			c-1.2,2.3-3.2,3.8-4.9,5.6c-3.1,0-6.2,0-9.3,0c0.5-1.7-0.8-1.9-1-3.3c1.9-1.8,3.6-4.1,5.7-5.7C41.8,16.5,42.9,16.8,43.8,16.4z"/>
		<path class="st0" d="M11.1,16.6c0.8,0,1.5,0.1,2.3,0.1c2.1,2.1,4.2,4.1,6.3,6.2c-0.5,1.1-1.1,1.8-0.9,3.4c-0.2,0-0.4,0-0.7,0
			c-2.6-0.6-5.4,0.5-8-0.1c-1.7-0.4-4.8-4.1-5.6-5.6c0.4-0.4,0.8-0.7,1.3-1.1c2.1,0.7,2.7,4.1,4.7,4.8c1.3,0,2.6,0,3.8,0
			c1.2,0,1.3,0,2.5-0.1c-0.1,0,1-0.1,0.9-0.1c-1.8-1.8-3.6-3.7-5.4-5.5c-1.9-0.8-4.8,0.3-6.5,0.4c-0.1-0.7-0.3-1.4-0.2-2.1
			C7.5,16.8,9.3,16.7,11.1,16.6z"/>
		<path class="st0" d="M49.6,24.3c-1.5,0.6-2.7,0.7-3.4,2.1c-1.7,3.9,3.4,6.1,6.4,4.5C56.4,29,54.2,24.1,49.6,24.3z M52.3,28.3
			c-0.7,1.6-3.5,1.1-4.2-0.1c0-0.3,0.1-0.6,0.1-0.9c0.3-0.7,0.8-0.8,1.4-1.2c1.6-0.1,2.3,0.2,2.8,1.3C52.3,27.7,52.3,28,52.3,28.3z"
			/>
		<path class="st0" d="M4.6,24.3c-1.7,0.6-3.1,0.8-3.8,2.4c-1.3,3.4,2.6,5.9,5.7,4.6C10.6,29.5,10,24.1,4.6,24.3z M7.1,28.3
			c-0.5,1.1-2.8,1.3-3.7,0.7c-0.2-0.3-0.4-0.5-0.7-0.8c0.1-0.3,0.1-0.6,0.2-0.9c0.3-0.6,0.8-0.7,1.3-1.1C5.9,26.2,7.5,26.7,7.1,28.3
			z"/>
		<path class="st0" d="M18.8,31.4c-2.1,0-7.4-0.6-8.9,0.4c-1.5,1-2.5,3.2-3.7,4.5c-0.9,0-1.3-0.5-1.6-1.1c0.5-1.2,3.8-5,4.9-5.5
			c1.5-0.6,7.5-0.6,9.2-0.1C18.8,30.2,18.8,30.8,18.8,31.4z"/>
		<path class="st0" d="M36.5,29.6c3,0,6.1,0,9.1,0c1.4,0.5,4.2,4.3,5,5.7c-0.3,0.4-0.8,0.6-1.1,1.1c-1.2-0.3-4-3.9-4.9-4.9
			c-2.8,0-5.5,0-8.3,0C36.4,30.8,36.5,30.2,36.5,29.6z"/>
		<path class="st0" d="M18.6,31.7c0.4,0,0.4,0,0.6,0.2c0.3,0.3,0.6,0.6,1,0.9c0,0.1,0,0.1,0,0.2c-3.1,2.4-3.6,6.3-9.2,6.3
			c-1.3,0-4.2,0.1-4.6-0.5c-0.1-0.3,0-1.4,0.2-1.7c2.6,0,5.8,1.2,7.5-0.3c0.7-0.9,1.3-1.7,2-2.6C16.8,33.3,18,32.7,18.6,31.7z"/>
		<path class="st0" d="M36.9,32.2c0.1,0,0.2,0,0.3,0c1.6,1.2,3.7,4.8,5.5,5.5c2.3,0,4.7,0.1,7,0.1c0,0.6,0,1.2,0,1.7
			c-2.6,0.1-5.2,0.1-7.8,0.2c-1.3-0.4-2.7-2.6-3.7-3.6c-0.8-0.9-2.4-1.8-2.3-3.3C36.2,32.6,36.6,32.4,36.9,32.2z"/>
		<path class="st0" d="M22.5,35.4c0.1,0,0.2,0,0.3,0c0.4,0.4,0.7,0.7,1.1,1.1c0,0.1,0,0.1,0,0.2c-1.3,0.9-5.4,4.7-5.8,6.2
			c-0.6,2.1,0.9,4.6,0.1,6.4c-0.6,0-1.2,0-1.7,0C15.1,39.5,18.1,40.2,22.5,35.4z"/>
		<path class="st0" d="M39.4,49.8c-0.6-0.1-1.3-0.1-1.9-0.2c0-1.4,0.8-5.7,0.2-6.7c-1.1-1.9-4.9-3.8-5.6-5.8
			c0.4-0.7,0.7-0.9,1.3-1.3c0.5,0.5,1.1,1.1,1.6,1.6c1.6,0.8,3.5,3.1,4.5,4.5C39.6,44.8,39.5,47.3,39.4,49.8z"/>
		<path class="st0" d="M24.1,37.2c0.6,0,1.3,0.1,1.9,0.1c0,7.2,1.1,16.8-1.8,21.6c-0.8,0-1.5,0-2.3,0c0.1-0.1,0.2-0.2,0.3-0.3
			c0.6-1.7,1.3-3.4,1.7-5.5C24.8,48.2,23.7,42,24.1,37.2z"/>
		<path class="st0" d="M29.5,37.2c0.6,0,1.3,0,1.9,0c-0.1,8-1,16.7,2.2,21.8c-0.8,0-1.5,0-2.3,0c-0.4-2.1-1.7-3.4-2.1-5.8
			C28.3,48.2,29.5,42.4,29.5,37.2z"/>
		<path class="st0" d="M11.4,40.1c-0.9,0.4-1.9,0.6-2.6,1.3c-2.2,2.2-0.8,6,1.9,6.4C15.5,48.3,18.2,39.8,11.4,40.1z M10.3,45.4
			c-0.2-0.1-0.3-0.2-0.5-0.3c-0.1-2,0.6-2.5,2-3.2c0.8,0,1,0.2,1.5,0.4C13.5,44.3,12.3,46.4,10.3,45.4z"/>
		<path class="st0" d="M42.6,40.4c-5.1,2.8,0.4,10.1,4.1,7.2C50.2,44.8,47,40.3,42.6,40.4z M45.7,45.9c-2,0.6-3.4-0.9-3.3-3.1
			c0.3-0.2,0.5-0.3,0.8-0.5C45.4,42.3,46.4,44,45.7,45.9z"/>
	</g>
</g>
<g id="words">
	<g>
		<path class="st1" d="M66.2,33.9h-7.3v-0.4c0.6-0.1,1-0.3,1.2-0.6c0.2-0.2,0.3-0.6,0.3-1.2v-8.1c0-0.6-0.1-1-0.3-1.2
			c-0.2-0.2-0.6-0.4-1.2-0.5v-0.4h6.4c1.3,0,2.3,0.2,3.1,0.7s1.1,1.2,1.1,2.1c0,1.4-0.9,2.4-2.7,2.9v0c2.3,0.4,3.5,1.5,3.5,3.2
			c0,1-0.4,1.7-1.1,2.3C68.3,33.6,67.4,33.9,66.2,33.9z M63,22.4v4.9h1c0.8,0,1.4-0.2,1.8-0.7c0.4-0.4,0.7-1,0.7-1.8
			c0-1.6-0.9-2.4-2.7-2.4H63z M64.5,28H63v3.7c0,0.5,0.1,0.9,0.4,1.2c0.3,0.2,0.7,0.3,1.4,0.3c0.8,0,1.4-0.2,1.8-0.7
			c0.4-0.5,0.7-1.1,0.7-1.9c0-0.8-0.2-1.4-0.7-1.9S65.3,28,64.5,28z"/>
		<path class="st1" d="M79.9,31.5h0.4c-0.4,0.8-0.9,1.5-1.7,2c-0.8,0.5-1.6,0.7-2.5,0.7c-1.2,0-2.2-0.4-3.1-1.2s-1.2-1.8-1.2-3
			c0-1.2,0.4-2.2,1.3-3.1c0.8-0.8,1.9-1.2,3.1-1.2c1.1,0,2,0.3,2.8,1c0.7,0.6,1.2,1.5,1.3,2.6h-5.9c0,0.1,0,0.2,0,0.3
			c0,1.1,0.3,1.9,0.8,2.6s1.2,1,2,1C78.2,33.2,79.1,32.6,79.9,31.5z M74.3,28.8h3.4c0-0.7-0.2-1.3-0.6-1.8c-0.3-0.5-0.7-0.7-1.2-0.7
			c-0.5,0-0.9,0.2-1.2,0.7C74.5,27.4,74.3,28,74.3,28.8z"/>
		<path class="st1" d="M84.9,25.7v2.5h0c0.7-1.7,1.6-2.5,2.6-2.5c0.5,0,1,0.2,1.4,0.7l-0.5,2.4c-0.7-0.7-1.3-1-1.8-1
			c-0.3,0-0.6,0.1-0.9,0.2c-0.3,0.2-0.5,0.5-0.8,0.9v3.2c0,0.5,0.1,0.8,0.3,1c0.2,0.2,0.5,0.3,1.1,0.4v0.4h-5v-0.4
			c0.5-0.1,0.9-0.3,1-0.5c0.2-0.2,0.3-0.5,0.3-1v-4.1c0-0.5-0.1-0.9-0.3-1.1c-0.2-0.2-0.6-0.4-1.1-0.4V26l3.4-0.3H84.9z"/>
		<path class="st1" d="M89.9,28.9c0-0.9,0.4-1.7,1.1-2.3s1.7-0.9,2.9-0.9c0.2,0,0.5,0,0.9,0l0.3,0h4.1v1.4l-2-0.2l0,0
			c0.7,0.6,1.1,1.3,1.1,2c0,0.8-0.4,1.5-1.1,2.1c-0.7,0.5-1.6,0.8-2.7,0.8c-0.9,0-1.6,0.1-1.9,0.2c-0.4,0.1-0.6,0.3-0.6,0.6
			c0,0.2,0.1,0.4,0.4,0.5c0.3,0.1,0.9,0.2,1.9,0.3c1.4,0.1,2.4,0.3,3.1,0.6c0.6,0.3,1.1,0.6,1.4,1c0.3,0.4,0.5,0.9,0.5,1.4
			c0,1-0.5,1.9-1.4,2.6c-1,0.7-2.2,1-3.8,1c-1.3,0-2.4-0.2-3.3-0.7c-0.8-0.5-1.3-1-1.3-1.8c0-0.6,0.3-1.1,0.9-1.5
			c0.6-0.4,1.4-0.7,2.4-0.8v-0.1c-0.9-0.1-1.6-0.3-2.1-0.6S90,34.1,90,33.5c0-0.4,0.2-0.8,0.6-1c0.4-0.3,1-0.5,2-0.7v0
			c-0.9-0.3-1.6-0.6-2-1.1C90.1,30.2,89.9,29.6,89.9,28.9z M91.3,36.9c0,0.6,0.5,1.1,1.4,1.4c0.9,0.4,2,0.5,3.2,0.5
			c0.6,0,1.1-0.1,1.4-0.4c0.4-0.2,0.6-0.6,0.6-0.9c0-0.6-0.4-1.1-1.3-1.4c-0.9-0.3-1.9-0.5-3.1-0.5c-0.7,0-1.2,0.1-1.6,0.3
			C91.5,36.2,91.3,36.5,91.3,36.9z M92.3,28.9c0,0.8,0.2,1.4,0.5,1.8c0.3,0.5,0.8,0.7,1.3,0.7c0.6,0,1-0.2,1.3-0.7
			c0.3-0.4,0.5-1.1,0.5-1.9c0-0.8-0.2-1.4-0.5-1.8c-0.3-0.4-0.7-0.7-1.2-0.7C92.9,26.3,92.3,27.2,92.3,28.9z"/>
		<path class="st1" d="M108.7,31.5h0.4c-0.4,0.8-0.9,1.5-1.7,2c-0.8,0.5-1.6,0.7-2.5,0.7c-1.2,0-2.2-0.4-3.1-1.2s-1.2-1.8-1.2-3
			c0-1.2,0.4-2.2,1.3-3.1c0.8-0.8,1.9-1.2,3.1-1.2c1.1,0,2,0.3,2.8,1c0.7,0.6,1.2,1.5,1.3,2.6h-5.9c0,0.1,0,0.2,0,0.3
			c0,1.1,0.3,1.9,0.8,2.6s1.2,1,2,1C107,33.2,107.9,32.6,108.7,31.5z M103.1,28.8h3.4c0-0.7-0.2-1.3-0.6-1.8
			c-0.3-0.5-0.7-0.7-1.2-0.7c-0.5,0-0.9,0.2-1.2,0.7C103.3,27.4,103.1,28,103.1,28.8z"/>
		<path class="st1" d="M113.7,25.7v1.9h0c0.8-1.3,1.7-1.9,3-1.9c0.8,0,1.4,0.3,2,0.8c0.5,0.5,0.8,1.2,0.8,2.1V32
			c0,0.5,0.1,0.8,0.3,1c0.2,0.2,0.5,0.4,1,0.5v0.4h-4.8v-0.4c0.5-0.1,0.8-0.3,1-0.5c0.2-0.2,0.3-0.5,0.3-1v-3.3c0-0.6-0.1-1-0.4-1.4
			c-0.3-0.3-0.6-0.5-1.1-0.5c-0.8,0-1.5,0.5-2,1.4V32c0,0.5,0.1,0.8,0.2,1s0.5,0.4,0.9,0.5v0.4h-4.7v-0.4c0.5-0.1,0.8-0.3,1-0.5
			c0.2-0.2,0.3-0.5,0.3-0.9v-4.4c0-0.4-0.1-0.8-0.3-1c-0.2-0.2-0.6-0.3-1.1-0.4V26l3.4-0.3H113.7z"/>
		<path class="st1" d="M134.8,25.8h0.4v3.8h-0.4c-0.1-0.5-0.3-0.9-0.6-1.2s-0.7-0.4-1.3-0.4H131v3.8c0,0.5,0.1,0.9,0.3,1.2
			s0.6,0.4,1.2,0.5v0.4h-5.7v-0.4c0.6-0.1,1-0.3,1.2-0.5c0.2-0.3,0.3-0.7,0.3-1.4v-7.8c0-0.5-0.1-0.9-0.3-1.1
			c-0.2-0.2-0.6-0.4-1.2-0.6v-0.4h8.6l0.2,2.3h-0.4c-0.2-0.6-0.5-1-0.8-1.2c-0.3-0.2-0.8-0.4-1.4-0.4H131v5h1.9c0.5,0,1-0.1,1.2-0.3
			S134.6,26.4,134.8,25.8z"/>
		<path class="st1" d="M138.6,34.2c-0.7,0-1.2-0.2-1.7-0.6c-0.5-0.4-0.7-0.9-0.7-1.5s0.2-1,0.7-1.4c0.5-0.4,1.4-0.8,2.8-1.1
			c0.7-0.2,1.2-0.3,1.5-0.4c0-0.7-0.2-1.3-0.5-1.6c-0.3-0.3-0.8-0.5-1.5-0.5c-1.1,0-1.8,0.4-2.4,1.3h-0.3c0.2-0.8,0.6-1.5,1.2-2
			c0.6-0.5,1.4-0.7,2.3-0.7c1,0,1.9,0.3,2.5,0.8c0.6,0.5,0.9,1.2,0.9,2.2v3.7c0,0.7,0.2,1,0.5,1c0.3,0,0.5-0.2,0.6-0.7h0.3
			c0,0.5-0.2,0.9-0.6,1.1c-0.3,0.3-0.8,0.4-1.4,0.4c-0.5,0-0.9-0.1-1.2-0.3c-0.3-0.2-0.5-0.5-0.7-0.8l-0.2,0.2
			C140.4,33.9,139.6,34.2,138.6,34.2z M141.3,32.5v-3c-1,0.4-1.7,0.8-2.1,1.1c-0.3,0.3-0.5,0.7-0.5,1.2c0,0.4,0.1,0.8,0.3,1
			c0.2,0.3,0.5,0.4,0.8,0.4C140.2,33.3,140.7,33.1,141.3,32.5z"/>
		<path class="st1" d="M149.6,25.7v1.9h0c0.6-1.3,1.5-1.9,2.8-1.9c1.3,0,2.2,0.6,2.6,1.9c0.4-0.7,0.8-1.2,1.3-1.5
			c0.4-0.3,1-0.5,1.6-0.5c0.8,0,1.4,0.3,1.9,0.8c0.4,0.5,0.7,1.2,0.7,2.1V32c0,0.5,0.1,0.8,0.3,1s0.5,0.4,1,0.5v0.4h-4.8v-0.4
			c0.4-0.1,0.8-0.3,1-0.5c0.2-0.2,0.3-0.5,0.3-0.9v-3.8c0-0.4-0.1-0.8-0.4-1c-0.2-0.3-0.5-0.4-0.9-0.4c-0.8,0-1.4,0.6-1.8,1.7v3.4
			c0,0.4,0.1,0.7,0.3,0.9c0.2,0.2,0.5,0.4,1,0.5v0.4h-4.8v-0.4c0.4-0.1,0.8-0.3,1-0.5c0.2-0.2,0.3-0.5,0.3-0.8v-3.9
			c0-0.4-0.1-0.7-0.4-0.9c-0.2-0.2-0.5-0.4-0.9-0.4c-0.7,0-1.3,0.5-1.8,1.4V32c0,0.5,0.1,0.9,0.3,1.1c0.2,0.2,0.5,0.4,1,0.5v0.4H146
			v-0.4c0.5-0.1,0.8-0.3,1-0.5c0.2-0.2,0.3-0.5,0.3-0.9v-4.2c0-0.5-0.1-0.9-0.3-1.1c-0.2-0.2-0.6-0.4-1.1-0.5V26l3.4-0.3H149.6z"/>
		<path class="st1" d="M166.1,25.7h0.4v6.5c0,0.8,0.4,1.2,1.3,1.3v0.4h-4.9v-0.4c0.5-0.1,0.9-0.3,1.1-0.4s0.3-0.5,0.3-1v-4.2
			c0-0.5-0.1-0.8-0.3-1c-0.2-0.2-0.6-0.3-1.1-0.4V26L166.1,25.7z M163.9,22.2c0-0.4,0.1-0.7,0.4-1s0.6-0.4,1-0.4
			c0.4,0,0.7,0.1,1,0.4c0.3,0.3,0.4,0.6,0.4,1c0,0.4-0.1,0.7-0.4,1c-0.3,0.3-0.6,0.4-1,0.4c-0.4,0-0.7-0.1-1-0.4
			S163.9,22.6,163.9,22.2z"/>
		<path class="st1" d="M168.6,33.9v-0.4c0.6-0.1,0.9-0.2,1.2-0.5c0.2-0.2,0.3-0.6,0.3-1.1v-9c0-0.6-0.1-1-0.3-1.2
			c-0.2-0.2-0.6-0.4-1.2-0.4v-0.4l3.5-0.2h0.4V32c0,0.5,0.1,0.9,0.3,1.1c0.2,0.2,0.5,0.4,1.1,0.5v0.4H168.6z"/>
		<path class="st1" d="M184,26v0.4c-0.5,0.1-0.8,0.3-1.1,0.5c-0.2,0.2-0.5,0.7-0.8,1.5l-4,9c-0.4,1-0.9,1.6-1.4,2s-1.2,0.6-2,0.6
			c-0.3,0-0.5,0-0.7,0l0.5-2.4c0.4,0.1,0.7,0.2,1.1,0.2c0.7,0,1.3-0.3,1.8-0.8c0.5-0.5,1-1.5,1.5-2.8l-2.9-6.1
			c-0.3-0.6-0.6-1-0.8-1.3s-0.6-0.4-1.1-0.5V26h4.8v0.4c-0.5,0.1-0.7,0.3-0.7,0.6c0,0.2,0.1,0.5,0.3,1l1.7,3.4l1.1-2.5
			c0.3-0.6,0.4-1.1,0.4-1.5c0-0.5-0.3-0.9-0.9-1V26H184z"/>
		<path class="st1" d="M201,25.9h-0.3c-0.3-1.2-0.8-2.2-1.5-2.9c-0.7-0.7-1.6-1-2.6-1c-1.1,0-2,0.5-2.7,1.4c-0.7,1-1,2.2-1,3.9
			c0,1.8,0.4,3.2,1.2,4.2s1.9,1.5,3.2,1.5c0.7,0,1.4-0.2,2-0.5c0.6-0.3,1.2-0.8,1.9-1.5v0.6c-1.2,1.7-2.8,2.5-4.9,2.5
			c-1.9,0-3.4-0.6-4.5-1.7c-1.2-1.2-1.7-2.7-1.7-4.5c0-1.9,0.6-3.4,1.9-4.7s2.8-1.9,4.7-1.9c0.8,0,1.6,0.2,2.6,0.5
			c0.4,0.1,0.7,0.2,0.8,0.2c0.3,0,0.5-0.2,0.8-0.6h0.3V25.9z"/>
		<path class="st1" d="M210.7,31.5h0.4c-0.4,0.8-0.9,1.5-1.7,2c-0.8,0.5-1.6,0.7-2.5,0.7c-1.2,0-2.2-0.4-3.1-1.2s-1.2-1.8-1.2-3
			c0-1.2,0.4-2.2,1.3-3.1s1.9-1.2,3.1-1.2c1.1,0,2,0.3,2.8,1s1.2,1.5,1.3,2.6h-5.9c0,0.1,0,0.2,0,0.3c0,1.1,0.3,1.9,0.8,2.6
			s1.2,1,2,1C209,33.2,209.9,32.6,210.7,31.5z M205.1,28.8h3.4c0-0.7-0.2-1.3-0.6-1.8c-0.3-0.5-0.7-0.7-1.2-0.7s-0.9,0.2-1.2,0.7
			C205.3,27.4,205.1,28,205.1,28.8z"/>
		<path class="st1" d="M215.7,25.7v1.9h0c0.8-1.3,1.7-1.9,3-1.9c0.8,0,1.4,0.3,2,0.8c0.5,0.5,0.8,1.2,0.8,2.1V32
			c0,0.5,0.1,0.8,0.3,1c0.2,0.2,0.5,0.4,1,0.5v0.4h-4.8v-0.4c0.5-0.1,0.8-0.3,1-0.5c0.2-0.2,0.3-0.5,0.3-1v-3.3c0-0.6-0.1-1-0.4-1.4
			c-0.3-0.3-0.6-0.5-1.1-0.5c-0.8,0-1.5,0.5-2,1.4V32c0,0.5,0.1,0.8,0.2,1c0.2,0.2,0.5,0.4,0.9,0.5v0.4h-4.7v-0.4
			c0.5-0.1,0.8-0.3,1-0.5c0.2-0.2,0.3-0.5,0.3-0.9v-4.4c0-0.4-0.1-0.8-0.3-1c-0.2-0.2-0.6-0.3-1.1-0.4V26l3.4-0.3H215.7z"/>
		<path class="st1" d="M230,32.6l0.2,0.2c-0.5,0.9-1.4,1.4-2.5,1.4c-0.8,0-1.5-0.2-2-0.7c-0.5-0.4-0.7-1.1-0.7-1.8v-5h-1.4v-0.4
			c1-0.6,2.2-1.7,3.4-3.3h0.4v3h2.6v0.6h-2.6v4.5c0,0.7,0.1,1.2,0.3,1.5c0.2,0.3,0.6,0.5,1.1,0.5C229.3,33.2,229.7,33,230,32.6z"/>
		<path class="st1" d="M239.3,31.5h0.4c-0.4,0.8-0.9,1.5-1.7,2c-0.8,0.5-1.6,0.7-2.5,0.7c-1.2,0-2.2-0.4-3.1-1.2s-1.2-1.8-1.2-3
			c0-1.2,0.4-2.2,1.3-3.1s1.9-1.2,3.1-1.2c1.1,0,2,0.3,2.8,1s1.2,1.5,1.3,2.6h-5.9c0,0.1,0,0.2,0,0.3c0,1.1,0.3,1.9,0.8,2.6
			s1.2,1,2,1C237.6,33.2,238.6,32.6,239.3,31.5z M233.7,28.8h3.4c0-0.7-0.2-1.3-0.6-1.8c-0.3-0.5-0.7-0.7-1.2-0.7s-0.9,0.2-1.2,0.7
			C233.9,27.4,233.8,28,233.7,28.8z"/>
		<path class="st1" d="M244.3,25.7v2.5h0c0.7-1.7,1.6-2.5,2.6-2.5c0.5,0,1,0.2,1.4,0.7l-0.5,2.4c-0.7-0.7-1.3-1-1.8-1
			c-0.3,0-0.6,0.1-0.9,0.2s-0.5,0.5-0.8,0.9v3.2c0,0.5,0.1,0.8,0.3,1c0.2,0.2,0.5,0.3,1.1,0.4v0.4h-5v-0.4c0.5-0.1,0.9-0.3,1-0.5
			c0.2-0.2,0.3-0.5,0.3-1v-4.1c0-0.5-0.1-0.9-0.3-1.1c-0.2-0.2-0.6-0.4-1.1-0.4V26l3.4-0.3H244.3z"/>
	</g>
</g>
</svg>
